<?xml version="1.0" encoding="utf-8" standalone="no"?>
<!DOCTYPE svg PUBLIC "-//W3C//DTD SVG 1.1//EN"
  "http://www.w3.org/Graphics/SVG/1.1/DTD/svg11.dtd">
<svg height="720pt" version="1.1" viewBox="0 0 720 720" width="720pt" xmlns="http://www.w3.org/2000/svg" xmlns:xlink="http://www.w3.org/1999/xlink">
 <metadata>
  <rdf:RDF xmlns:cc="http://creativecommons.org/ns#" xmlns:dc="http://purl.org/dc/elements/1.1/" xmlns:rdf="http://www.w3.org/1999/02/22-rdf-syntax-ns#">
   <cc:Work>
    <dc:type rdf:resource="http://purl.org/dc/dcmitype/StillImage"/>
    <dc:date>2021-05-13T12:13:58.120428</dc:date>
    <dc:format>image/svg+xml</dc:format>
    <dc:creator>
     <cc:Agent>
      <dc:title>Matplotlib v3.4.1, https://matplotlib.org/</dc:title>
     </cc:Agent>
    </dc:creator>
   </cc:Work>
  </rdf:RDF>
 </metadata>
 <defs>
  <style type="text/css">*{stroke-linecap:butt;stroke-linejoin:round;}</style>
 </defs>
 <g id="figure_1">
  <g id="patch_1">
   <path d="M 0 720 
L 720 720 
L 720 0 
L 0 0 
z
" style="fill:none;"/>
  </g>
  <g id="axes_1">
   <g id="patch_2">
    <path d="M 71.718365 230.948851 
L 716.99976 230.948851 
L 716.99976 52.581345 
L 71.718365 52.581345 
z
" style="fill:#ffffff;"/>
   </g>
   <g id="patch_3">
    <path clip-path="url(#p0458b7306e)" d="M 112.048452 230.948851 
L 192.708627 230.948851 
L 192.708627 69.375849 
L 112.048452 69.375849 
z
" style="fill:#1f77b4;"/>
   </g>
   <g id="patch_4">
    <path clip-path="url(#p0458b7306e)" d="M 273.368801 230.948851 
L 354.028975 230.948851 
L 354.028975 97.475629 
L 273.368801 97.475629 
z
" style="fill:#1f77b4;"/>
   </g>
   <g id="patch_5">
    <path clip-path="url(#p0458b7306e)" d="M 434.68915 230.948851 
L 515.349324 230.948851 
L 515.349324 107.14623 
L 434.68915 107.14623 
z
" style="fill:#1f77b4;"/>
   </g>
   <g id="patch_6">
    <path clip-path="url(#p0458b7306e)" d="M 596.009498 230.948851 
L 676.669673 230.948851 
L 676.669673 116.286667 
L 596.009498 116.286667 
z
" style="fill:#1f77b4;"/>
   </g>
   <g id="patch_7">
    <path clip-path="url(#p0458b7306e)" d="M 112.048452 230.948851 
L 192.708627 230.948851 
L 192.708627 69.375849 
L 112.048452 69.375849 
z
" style="fill:#8b0000;"/>
   </g>
   <g id="patch_8">
    <path clip-path="url(#p0458b7306e)" d="M 273.368801 230.948851 
L 354.028975 230.948851 
L 354.028975 97.475629 
L 273.368801 97.475629 
z
" style="fill:#8b0000;"/>
   </g>
   <g id="patch_9">
    <path clip-path="url(#p0458b7306e)" d="M 434.68915 230.948851 
L 515.349324 230.948851 
L 515.349324 107.14623 
L 434.68915 107.14623 
z
" style="fill:#8b0000;"/>
   </g>
   <g id="patch_10">
    <path clip-path="url(#p0458b7306e)" d="M 596.009498 230.948851 
L 676.669673 230.948851 
L 676.669673 116.286667 
L 596.009498 116.286667 
z
" style="fill:#8b0000;"/>
   </g>
   <g id="matplotlib.axis_1">
    <g id="xtick_1">
     <g id="line2d_1">
      <defs>
       <path d="M 0 0 
L 0 3.5 
" id="md951c17257" style="stroke:#000000;stroke-width:0.8;"/>
      </defs>
      <g>
       <use style="stroke:#000000;stroke-width:0.8;" x="152.378539" xlink:href="#md951c17257" y="230.948851"/>
      </g>
     </g>
    </g>
    <g id="xtick_2">
     <g id="line2d_2">
      <g>
       <use style="stroke:#000000;stroke-width:0.8;" x="313.698888" xlink:href="#md951c17257" y="230.948851"/>
      </g>
     </g>
    </g>
    <g id="xtick_3">
     <g id="line2d_3">
      <g>
       <use style="stroke:#000000;stroke-width:0.8;" x="475.019237" xlink:href="#md951c17257" y="230.948851"/>
      </g>
     </g>
    </g>
    <g id="xtick_4">
     <g id="line2d_4">
      <g>
       <use style="stroke:#000000;stroke-width:0.8;" x="636.339586" xlink:href="#md951c17257" y="230.948851"/>
      </g>
     </g>
    </g>
    <g id="xtick_5">
     <g id="line2d_5">
      <defs>
       <path d="M 0 0 
L 0 2 
" id="m5f22bc6eb9" style="stroke:#000000;stroke-width:0.6;"/>
      </defs>
      <g>
       <use style="stroke:#000000;stroke-width:0.6;" x="71.718365" xlink:href="#m5f22bc6eb9" y="230.948851"/>
      </g>
     </g>
    </g>
    <g id="xtick_6">
     <g id="line2d_6">
      <g>
       <use style="stroke:#000000;stroke-width:0.6;" x="233.038714" xlink:href="#m5f22bc6eb9" y="230.948851"/>
      </g>
     </g>
    </g>
    <g id="xtick_7">
     <g id="line2d_7">
      <g>
       <use style="stroke:#000000;stroke-width:0.6;" x="394.359062" xlink:href="#m5f22bc6eb9" y="230.948851"/>
      </g>
     </g>
    </g>
    <g id="xtick_8">
     <g id="line2d_8">
      <g>
       <use style="stroke:#000000;stroke-width:0.6;" x="555.679411" xlink:href="#m5f22bc6eb9" y="230.948851"/>
      </g>
     </g>
    </g>
    <g id="xtick_9">
     <g id="line2d_9">
      <g>
       <use style="stroke:#000000;stroke-width:0.6;" x="716.99976" xlink:href="#m5f22bc6eb9" y="230.948851"/>
      </g>
     </g>
    </g>
   </g>
   <g id="matplotlib.axis_2">
    <g id="ytick_1">
     <g id="line2d_10">
      <defs>
       <path d="M 0 0 
L -3.5 0 
" id="mad5fc2d9a9" style="stroke:#000000;stroke-width:0.8;"/>
      </defs>
      <g>
       <use style="stroke:#000000;stroke-width:0.8;" x="71.718365" xlink:href="#mad5fc2d9a9" y="230.948851"/>
      </g>
     </g>
     <g id="text_1">
      <!-- 0.0 -->
      <g transform="translate(36.09274 237.787445)scale(0.18 -0.18)">
       <defs>
        <path d="M 2034 4250 
Q 1547 4250 1301 3770 
Q 1056 3291 1056 2328 
Q 1056 1369 1301 889 
Q 1547 409 2034 409 
Q 2525 409 2770 889 
Q 3016 1369 3016 2328 
Q 3016 3291 2770 3770 
Q 2525 4250 2034 4250 
z
M 2034 4750 
Q 2819 4750 3233 4129 
Q 3647 3509 3647 2328 
Q 3647 1150 3233 529 
Q 2819 -91 2034 -91 
Q 1250 -91 836 529 
Q 422 1150 422 2328 
Q 422 3509 836 4129 
Q 1250 4750 2034 4750 
z
" id="DejaVuSans-30" transform="scale(0.015625)"/>
        <path d="M 684 794 
L 1344 794 
L 1344 0 
L 684 0 
L 684 794 
z
" id="DejaVuSans-2e" transform="scale(0.015625)"/>
       </defs>
       <use xlink:href="#DejaVuSans-30"/>
       <use x="63.623047" xlink:href="#DejaVuSans-2e"/>
       <use x="95.410156" xlink:href="#DejaVuSans-30"/>
      </g>
     </g>
    </g>
    <g id="ytick_2">
     <g id="line2d_11">
      <g>
       <use style="stroke:#000000;stroke-width:0.8;" x="71.718365" xlink:href="#mad5fc2d9a9" y="158.900608"/>
      </g>
     </g>
     <g id="text_2">
      <!-- 0.5 -->
      <g transform="translate(36.09274 165.739202)scale(0.18 -0.18)">
       <defs>
        <path d="M 691 4666 
L 3169 4666 
L 3169 4134 
L 1269 4134 
L 1269 2991 
Q 1406 3038 1543 3061 
Q 1681 3084 1819 3084 
Q 2600 3084 3056 2656 
Q 3513 2228 3513 1497 
Q 3513 744 3044 326 
Q 2575 -91 1722 -91 
Q 1428 -91 1123 -41 
Q 819 9 494 109 
L 494 744 
Q 775 591 1075 516 
Q 1375 441 1709 441 
Q 2250 441 2565 725 
Q 2881 1009 2881 1497 
Q 2881 1984 2565 2268 
Q 2250 2553 1709 2553 
Q 1456 2553 1204 2497 
Q 953 2441 691 2322 
L 691 4666 
z
" id="DejaVuSans-35" transform="scale(0.015625)"/>
       </defs>
       <use xlink:href="#DejaVuSans-30"/>
       <use x="63.623047" xlink:href="#DejaVuSans-2e"/>
       <use x="95.410156" xlink:href="#DejaVuSans-35"/>
      </g>
     </g>
    </g>
    <g id="ytick_3">
     <g id="line2d_12">
      <g>
       <use style="stroke:#000000;stroke-width:0.8;" x="71.718365" xlink:href="#mad5fc2d9a9" y="86.852366"/>
      </g>
     </g>
     <g id="text_3">
      <!-- 1.0 -->
      <g transform="translate(36.09274 93.690959)scale(0.18 -0.18)">
       <defs>
        <path d="M 794 531 
L 1825 531 
L 1825 4091 
L 703 3866 
L 703 4441 
L 1819 4666 
L 2450 4666 
L 2450 531 
L 3481 531 
L 3481 0 
L 794 0 
L 794 531 
z
" id="DejaVuSans-31" transform="scale(0.015625)"/>
       </defs>
       <use xlink:href="#DejaVuSans-31"/>
       <use x="63.623047" xlink:href="#DejaVuSans-2e"/>
       <use x="95.410156" xlink:href="#DejaVuSans-30"/>
      </g>
     </g>
    </g>
    <g id="text_4">
     <!-- Conc. N14 $A\beta$ / µM -->
     <g transform="translate(28.31274 225.195098)rotate(-90)scale(0.18 -0.18)">
      <defs>
       <path d="M 4122 4306 
L 4122 3641 
Q 3803 3938 3442 4084 
Q 3081 4231 2675 4231 
Q 1875 4231 1450 3742 
Q 1025 3253 1025 2328 
Q 1025 1406 1450 917 
Q 1875 428 2675 428 
Q 3081 428 3442 575 
Q 3803 722 4122 1019 
L 4122 359 
Q 3791 134 3420 21 
Q 3050 -91 2638 -91 
Q 1578 -91 968 557 
Q 359 1206 359 2328 
Q 359 3453 968 4101 
Q 1578 4750 2638 4750 
Q 3056 4750 3426 4639 
Q 3797 4528 4122 4306 
z
" id="DejaVuSans-43" transform="scale(0.015625)"/>
       <path d="M 1959 3097 
Q 1497 3097 1228 2736 
Q 959 2375 959 1747 
Q 959 1119 1226 758 
Q 1494 397 1959 397 
Q 2419 397 2687 759 
Q 2956 1122 2956 1747 
Q 2956 2369 2687 2733 
Q 2419 3097 1959 3097 
z
M 1959 3584 
Q 2709 3584 3137 3096 
Q 3566 2609 3566 1747 
Q 3566 888 3137 398 
Q 2709 -91 1959 -91 
Q 1206 -91 779 398 
Q 353 888 353 1747 
Q 353 2609 779 3096 
Q 1206 3584 1959 3584 
z
" id="DejaVuSans-6f" transform="scale(0.015625)"/>
       <path d="M 3513 2113 
L 3513 0 
L 2938 0 
L 2938 2094 
Q 2938 2591 2744 2837 
Q 2550 3084 2163 3084 
Q 1697 3084 1428 2787 
Q 1159 2491 1159 1978 
L 1159 0 
L 581 0 
L 581 3500 
L 1159 3500 
L 1159 2956 
Q 1366 3272 1645 3428 
Q 1925 3584 2291 3584 
Q 2894 3584 3203 3211 
Q 3513 2838 3513 2113 
z
" id="DejaVuSans-6e" transform="scale(0.015625)"/>
       <path d="M 3122 3366 
L 3122 2828 
Q 2878 2963 2633 3030 
Q 2388 3097 2138 3097 
Q 1578 3097 1268 2742 
Q 959 2388 959 1747 
Q 959 1106 1268 751 
Q 1578 397 2138 397 
Q 2388 397 2633 464 
Q 2878 531 3122 666 
L 3122 134 
Q 2881 22 2623 -34 
Q 2366 -91 2075 -91 
Q 1284 -91 818 406 
Q 353 903 353 1747 
Q 353 2603 823 3093 
Q 1294 3584 2113 3584 
Q 2378 3584 2631 3529 
Q 2884 3475 3122 3366 
z
" id="DejaVuSans-63" transform="scale(0.015625)"/>
       <path id="DejaVuSans-20" transform="scale(0.015625)"/>
       <path d="M 628 4666 
L 1478 4666 
L 3547 763 
L 3547 4666 
L 4159 4666 
L 4159 0 
L 3309 0 
L 1241 3903 
L 1241 0 
L 628 0 
L 628 4666 
z
" id="DejaVuSans-4e" transform="scale(0.015625)"/>
       <path d="M 2419 4116 
L 825 1625 
L 2419 1625 
L 2419 4116 
z
M 2253 4666 
L 3047 4666 
L 3047 1625 
L 3713 1625 
L 3713 1100 
L 3047 1100 
L 3047 0 
L 2419 0 
L 2419 1100 
L 313 1100 
L 313 1709 
L 2253 4666 
z
" id="DejaVuSans-34" transform="scale(0.015625)"/>
       <path d="M 2356 4666 
L 3072 4666 
L 3938 0 
L 3278 0 
L 3084 1197 
L 984 1197 
L 325 0 
L -341 0 
L 2356 4666 
z
M 2584 4044 
L 1275 1722 
L 2988 1722 
L 2584 4044 
z
" id="DejaVuSans-Oblique-41" transform="scale(0.015625)"/>
       <path d="M 872 216 
L 572 -1331 
L -6 -1331 
L 928 3478 
Q 1206 4903 2538 4903 
Q 3888 4903 3659 3700 
Q 3503 2844 2894 2531 
Q 3713 2250 3553 1416 
Q 3272 -69 1759 -66 
Q 1097 -63 872 216 
z
M 1019 966 
Q 1259 422 1875 425 
Q 2775 425 2966 1406 
Q 3138 2288 1675 2219 
L 1778 2750 
Q 2909 2731 3106 3750 
Q 3241 4438 2509 4434 
Q 1691 4434 1503 3459 
L 1019 966 
z
" id="DejaVuSans-Oblique-3b2" transform="scale(0.015625)"/>
       <path d="M 1625 4666 
L 2156 4666 
L 531 -594 
L 0 -594 
L 1625 4666 
z
" id="DejaVuSans-2f" transform="scale(0.015625)"/>
       <path d="M 544 -1331 
L 544 3500 
L 1119 3500 
L 1119 1325 
Q 1119 872 1334 640 
Q 1550 409 1972 409 
Q 2434 409 2667 671 
Q 2900 934 2900 1459 
L 2900 3500 
L 3475 3500 
L 3475 806 
Q 3475 619 3529 530 
Q 3584 441 3700 441 
Q 3728 441 3778 458 
Q 3828 475 3916 513 
L 3916 50 
Q 3788 -22 3673 -56 
Q 3559 -91 3450 -91 
Q 3234 -91 3106 31 
Q 2978 153 2931 403 
Q 2775 156 2548 32 
Q 2322 -91 2016 -91 
Q 1697 -91 1473 31 
Q 1250 153 1119 397 
L 1119 -1331 
L 544 -1331 
z
" id="DejaVuSans-b5" transform="scale(0.015625)"/>
       <path d="M 628 4666 
L 1569 4666 
L 2759 1491 
L 3956 4666 
L 4897 4666 
L 4897 0 
L 4281 0 
L 4281 4097 
L 3078 897 
L 2444 897 
L 1241 4097 
L 1241 0 
L 628 0 
L 628 4666 
z
" id="DejaVuSans-4d" transform="scale(0.015625)"/>
      </defs>
      <use transform="translate(0 0.390625)" xlink:href="#DejaVuSans-43"/>
      <use transform="translate(69.824219 0.390625)" xlink:href="#DejaVuSans-6f"/>
      <use transform="translate(131.005859 0.390625)" xlink:href="#DejaVuSans-6e"/>
      <use transform="translate(194.384766 0.390625)" xlink:href="#DejaVuSans-63"/>
      <use transform="translate(249.365234 0.390625)" xlink:href="#DejaVuSans-2e"/>
      <use transform="translate(281.152344 0.390625)" xlink:href="#DejaVuSans-20"/>
      <use transform="translate(312.939453 0.390625)" xlink:href="#DejaVuSans-4e"/>
      <use transform="translate(387.744141 0.390625)" xlink:href="#DejaVuSans-31"/>
      <use transform="translate(451.367188 0.390625)" xlink:href="#DejaVuSans-34"/>
      <use transform="translate(514.990234 0.390625)" xlink:href="#DejaVuSans-20"/>
      <use transform="translate(546.777344 0.390625)" xlink:href="#DejaVuSans-Oblique-41"/>
      <use transform="translate(615.185547 0.390625)" xlink:href="#DejaVuSans-Oblique-3b2"/>
      <use transform="translate(679.003906 0.390625)" xlink:href="#DejaVuSans-20"/>
      <use transform="translate(710.791016 0.390625)" xlink:href="#DejaVuSans-2f"/>
      <use transform="translate(744.482422 0.390625)" xlink:href="#DejaVuSans-20"/>
      <use transform="translate(776.269531 0.390625)" xlink:href="#DejaVuSans-b5"/>
      <use transform="translate(839.892578 0.390625)" xlink:href="#DejaVuSans-4d"/>
     </g>
    </g>
   </g>
   <g id="LineCollection_1">
    <path clip-path="url(#p0458b7306e)" d="M 152.378539 77.676663 
L 152.378539 61.075036 
" style="fill:none;stroke:#000000;stroke-width:1.5;"/>
    <path clip-path="url(#p0458b7306e)" d="M 313.698888 99.042447 
L 313.698888 95.908811 
" style="fill:none;stroke:#000000;stroke-width:1.5;"/>
    <path clip-path="url(#p0458b7306e)" d="M 475.019237 109.483682 
L 475.019237 104.808778 
" style="fill:none;stroke:#000000;stroke-width:1.5;"/>
    <path clip-path="url(#p0458b7306e)" d="M 636.339586 120.659678 
L 636.339586 111.913655 
" style="fill:none;stroke:#000000;stroke-width:1.5;"/>
   </g>
   <g id="patch_11">
    <path d="M 71.718365 230.948851 
L 71.718365 52.581345 
" style="fill:none;stroke:#000000;stroke-linecap:square;stroke-linejoin:miter;stroke-width:0.8;"/>
   </g>
   <g id="patch_12">
    <path d="M 716.99976 230.948851 
L 716.99976 52.581345 
" style="fill:none;stroke:#000000;stroke-linecap:square;stroke-linejoin:miter;stroke-width:0.8;"/>
   </g>
   <g id="patch_13">
    <path d="M 71.718365 230.948851 
L 716.99976 230.948851 
" style="fill:none;stroke:#000000;stroke-linecap:square;stroke-linejoin:miter;stroke-width:0.8;"/>
   </g>
   <g id="patch_14">
    <path d="M 71.718365 52.581345 
L 716.99976 52.581345 
" style="fill:none;stroke:#000000;stroke-linecap:square;stroke-linejoin:miter;stroke-width:0.8;"/>
   </g>
   <g id="text_5">
    <!-- 1.12 -->
    <g transform="translate(132.339477 155.129225)scale(0.18 -0.18)">
     <defs>
      <path d="M 1228 531 
L 3431 531 
L 3431 0 
L 469 0 
L 469 531 
Q 828 903 1448 1529 
Q 2069 2156 2228 2338 
Q 2531 2678 2651 2914 
Q 2772 3150 2772 3378 
Q 2772 3750 2511 3984 
Q 2250 4219 1831 4219 
Q 1534 4219 1204 4116 
Q 875 4013 500 3803 
L 500 4441 
Q 881 4594 1212 4672 
Q 1544 4750 1819 4750 
Q 2544 4750 2975 4387 
Q 3406 4025 3406 3419 
Q 3406 3131 3298 2873 
Q 3191 2616 2906 2266 
Q 2828 2175 2409 1742 
Q 1991 1309 1228 531 
z
" id="DejaVuSans-32" transform="scale(0.015625)"/>
     </defs>
     <use xlink:href="#DejaVuSans-31"/>
     <use x="63.623047" xlink:href="#DejaVuSans-2e"/>
     <use x="95.410156" xlink:href="#DejaVuSans-31"/>
     <use x="159.033203" xlink:href="#DejaVuSans-32"/>
    </g>
   </g>
   <g id="text_6">
    <!-- 0.93 -->
    <g transform="translate(293.659826 169.179115)scale(0.18 -0.18)">
     <defs>
      <path d="M 703 97 
L 703 672 
Q 941 559 1184 500 
Q 1428 441 1663 441 
Q 2288 441 2617 861 
Q 2947 1281 2994 2138 
Q 2813 1869 2534 1725 
Q 2256 1581 1919 1581 
Q 1219 1581 811 2004 
Q 403 2428 403 3163 
Q 403 3881 828 4315 
Q 1253 4750 1959 4750 
Q 2769 4750 3195 4129 
Q 3622 3509 3622 2328 
Q 3622 1225 3098 567 
Q 2575 -91 1691 -91 
Q 1453 -91 1209 -44 
Q 966 3 703 97 
z
M 1959 2075 
Q 2384 2075 2632 2365 
Q 2881 2656 2881 3163 
Q 2881 3666 2632 3958 
Q 2384 4250 1959 4250 
Q 1534 4250 1286 3958 
Q 1038 3666 1038 3163 
Q 1038 2656 1286 2365 
Q 1534 2075 1959 2075 
z
" id="DejaVuSans-39" transform="scale(0.015625)"/>
      <path d="M 2597 2516 
Q 3050 2419 3304 2112 
Q 3559 1806 3559 1356 
Q 3559 666 3084 287 
Q 2609 -91 1734 -91 
Q 1441 -91 1130 -33 
Q 819 25 488 141 
L 488 750 
Q 750 597 1062 519 
Q 1375 441 1716 441 
Q 2309 441 2620 675 
Q 2931 909 2931 1356 
Q 2931 1769 2642 2001 
Q 2353 2234 1838 2234 
L 1294 2234 
L 1294 2753 
L 1863 2753 
Q 2328 2753 2575 2939 
Q 2822 3125 2822 3475 
Q 2822 3834 2567 4026 
Q 2313 4219 1838 4219 
Q 1578 4219 1281 4162 
Q 984 4106 628 3988 
L 628 4550 
Q 988 4650 1302 4700 
Q 1616 4750 1894 4750 
Q 2613 4750 3031 4423 
Q 3450 4097 3450 3541 
Q 3450 3153 3228 2886 
Q 3006 2619 2597 2516 
z
" id="DejaVuSans-33" transform="scale(0.015625)"/>
     </defs>
     <use xlink:href="#DejaVuSans-30"/>
     <use x="63.623047" xlink:href="#DejaVuSans-2e"/>
     <use x="95.410156" xlink:href="#DejaVuSans-39"/>
     <use x="159.033203" xlink:href="#DejaVuSans-33"/>
    </g>
   </g>
   <g id="text_7">
    <!-- 0.86 -->
    <g transform="translate(454.980174 174.014415)scale(0.18 -0.18)">
     <defs>
      <path d="M 2034 2216 
Q 1584 2216 1326 1975 
Q 1069 1734 1069 1313 
Q 1069 891 1326 650 
Q 1584 409 2034 409 
Q 2484 409 2743 651 
Q 3003 894 3003 1313 
Q 3003 1734 2745 1975 
Q 2488 2216 2034 2216 
z
M 1403 2484 
Q 997 2584 770 2862 
Q 544 3141 544 3541 
Q 544 4100 942 4425 
Q 1341 4750 2034 4750 
Q 2731 4750 3128 4425 
Q 3525 4100 3525 3541 
Q 3525 3141 3298 2862 
Q 3072 2584 2669 2484 
Q 3125 2378 3379 2068 
Q 3634 1759 3634 1313 
Q 3634 634 3220 271 
Q 2806 -91 2034 -91 
Q 1263 -91 848 271 
Q 434 634 434 1313 
Q 434 1759 690 2068 
Q 947 2378 1403 2484 
z
M 1172 3481 
Q 1172 3119 1398 2916 
Q 1625 2713 2034 2713 
Q 2441 2713 2670 2916 
Q 2900 3119 2900 3481 
Q 2900 3844 2670 4047 
Q 2441 4250 2034 4250 
Q 1625 4250 1398 4047 
Q 1172 3844 1172 3481 
z
" id="DejaVuSans-38" transform="scale(0.015625)"/>
      <path d="M 2113 2584 
Q 1688 2584 1439 2293 
Q 1191 2003 1191 1497 
Q 1191 994 1439 701 
Q 1688 409 2113 409 
Q 2538 409 2786 701 
Q 3034 994 3034 1497 
Q 3034 2003 2786 2293 
Q 2538 2584 2113 2584 
z
M 3366 4563 
L 3366 3988 
Q 3128 4100 2886 4159 
Q 2644 4219 2406 4219 
Q 1781 4219 1451 3797 
Q 1122 3375 1075 2522 
Q 1259 2794 1537 2939 
Q 1816 3084 2150 3084 
Q 2853 3084 3261 2657 
Q 3669 2231 3669 1497 
Q 3669 778 3244 343 
Q 2819 -91 2113 -91 
Q 1303 -91 875 529 
Q 447 1150 447 2328 
Q 447 3434 972 4092 
Q 1497 4750 2381 4750 
Q 2619 4750 2861 4703 
Q 3103 4656 3366 4563 
z
" id="DejaVuSans-36" transform="scale(0.015625)"/>
     </defs>
     <use xlink:href="#DejaVuSans-30"/>
     <use x="63.623047" xlink:href="#DejaVuSans-2e"/>
     <use x="95.410156" xlink:href="#DejaVuSans-38"/>
     <use x="159.033203" xlink:href="#DejaVuSans-36"/>
    </g>
   </g>
   <g id="text_8">
    <!-- 0.80 -->
    <g transform="translate(616.300523 178.584634)scale(0.18 -0.18)">
     <use xlink:href="#DejaVuSans-30"/>
     <use x="63.623047" xlink:href="#DejaVuSans-2e"/>
     <use x="95.410156" xlink:href="#DejaVuSans-38"/>
     <use x="159.033203" xlink:href="#DejaVuSans-30"/>
    </g>
   </g>
   <g id="text_9">
    <!-- 768 -->
    <g transform="translate(373.744562 46.581345)scale(0.216 -0.216)">
     <defs>
      <path d="M 525 4666 
L 3525 4666 
L 3525 4397 
L 1831 0 
L 1172 0 
L 2766 4134 
L 525 4134 
L 525 4666 
z
" id="DejaVuSans-37" transform="scale(0.015625)"/>
     </defs>
     <use xlink:href="#DejaVuSans-37"/>
     <use x="63.623047" xlink:href="#DejaVuSans-36"/>
     <use x="127.246094" xlink:href="#DejaVuSans-38"/>
    </g>
   </g>
  </g>
  <g id="axes_2">
   <g id="patch_15">
    <path d="M 71.718365 448.311493 
L 716.99976 448.311493 
L 716.99976 269.943987 
L 71.718365 269.943987 
z
" style="fill:#ffffff;"/>
   </g>
   <g id="patch_16">
    <path clip-path="url(#p7df2966949)" d="M 112.048452 448.311493 
L 192.708627 448.311493 
L 192.708627 320.257574 
L 112.048452 320.257574 
z
" style="fill:#1f77b4;"/>
   </g>
   <g id="patch_17">
    <path clip-path="url(#p7df2966949)" d="M 273.368801 448.311493 
L 354.028975 448.311493 
L 354.028975 294.919193 
L 273.368801 294.919193 
z
" style="fill:#1f77b4;"/>
   </g>
   <g id="patch_18">
    <path clip-path="url(#p7df2966949)" d="M 434.68915 448.311493 
L 515.349324 448.311493 
L 515.349324 293.982359 
L 434.68915 293.982359 
z
" style="fill:#1f77b4;"/>
   </g>
   <g id="patch_19">
    <path clip-path="url(#p7df2966949)" d="M 596.009498 448.311493 
L 676.669673 448.311493 
L 676.669673 362.199987 
L 596.009498 362.199987 
z
" style="fill:#1f77b4;"/>
   </g>
   <g id="patch_20">
    <path clip-path="url(#p7df2966949)" d="M 112.048452 448.311493 
L 192.708627 448.311493 
L 192.708627 320.257574 
L 112.048452 320.257574 
z
" style="fill:#8b0000;"/>
   </g>
   <g id="patch_21">
    <path clip-path="url(#p7df2966949)" d="M 273.368801 448.311493 
L 354.028975 448.311493 
L 354.028975 294.919193 
L 273.368801 294.919193 
z
" style="fill:#8b0000;"/>
   </g>
   <g id="patch_22">
    <path clip-path="url(#p7df2966949)" d="M 434.68915 448.311493 
L 515.349324 448.311493 
L 515.349324 293.982359 
L 434.68915 293.982359 
z
" style="fill:#8b0000;"/>
   </g>
   <g id="patch_23">
    <path clip-path="url(#p7df2966949)" d="M 596.009498 448.311493 
L 676.669673 448.311493 
L 676.669673 362.199987 
L 596.009498 362.199987 
z
" style="fill:#8b0000;"/>
   </g>
   <g id="matplotlib.axis_3">
    <g id="xtick_10">
     <g id="line2d_13">
      <g>
       <use style="stroke:#000000;stroke-width:0.8;" x="152.378539" xlink:href="#md951c17257" y="448.311493"/>
      </g>
     </g>
    </g>
    <g id="xtick_11">
     <g id="line2d_14">
      <g>
       <use style="stroke:#000000;stroke-width:0.8;" x="313.698888" xlink:href="#md951c17257" y="448.311493"/>
      </g>
     </g>
    </g>
    <g id="xtick_12">
     <g id="line2d_15">
      <g>
       <use style="stroke:#000000;stroke-width:0.8;" x="475.019237" xlink:href="#md951c17257" y="448.311493"/>
      </g>
     </g>
    </g>
    <g id="xtick_13">
     <g id="line2d_16">
      <g>
       <use style="stroke:#000000;stroke-width:0.8;" x="636.339586" xlink:href="#md951c17257" y="448.311493"/>
      </g>
     </g>
    </g>
    <g id="xtick_14">
     <g id="line2d_17">
      <g>
       <use style="stroke:#000000;stroke-width:0.6;" x="71.718365" xlink:href="#m5f22bc6eb9" y="448.311493"/>
      </g>
     </g>
    </g>
    <g id="xtick_15">
     <g id="line2d_18">
      <g>
       <use style="stroke:#000000;stroke-width:0.6;" x="233.038714" xlink:href="#m5f22bc6eb9" y="448.311493"/>
      </g>
     </g>
    </g>
    <g id="xtick_16">
     <g id="line2d_19">
      <g>
       <use style="stroke:#000000;stroke-width:0.6;" x="394.359062" xlink:href="#m5f22bc6eb9" y="448.311493"/>
      </g>
     </g>
    </g>
    <g id="xtick_17">
     <g id="line2d_20">
      <g>
       <use style="stroke:#000000;stroke-width:0.6;" x="555.679411" xlink:href="#m5f22bc6eb9" y="448.311493"/>
      </g>
     </g>
    </g>
    <g id="xtick_18">
     <g id="line2d_21">
      <g>
       <use style="stroke:#000000;stroke-width:0.6;" x="716.99976" xlink:href="#m5f22bc6eb9" y="448.311493"/>
      </g>
     </g>
    </g>
   </g>
   <g id="matplotlib.axis_4">
    <g id="ytick_4">
     <g id="line2d_22">
      <g>
       <use style="stroke:#000000;stroke-width:0.8;" x="71.718365" xlink:href="#mad5fc2d9a9" y="448.311493"/>
      </g>
     </g>
     <g id="text_10">
      <!-- 0.0 -->
      <g transform="translate(36.09274 455.150087)scale(0.18 -0.18)">
       <use xlink:href="#DejaVuSans-30"/>
       <use x="63.623047" xlink:href="#DejaVuSans-2e"/>
       <use x="95.410156" xlink:href="#DejaVuSans-30"/>
      </g>
     </g>
    </g>
    <g id="ytick_5">
     <g id="line2d_23">
      <g>
       <use style="stroke:#000000;stroke-width:0.8;" x="71.718365" xlink:href="#mad5fc2d9a9" y="384.754661"/>
      </g>
     </g>
     <g id="text_11">
      <!-- 0.2 -->
      <g transform="translate(36.09274 391.593254)scale(0.18 -0.18)">
       <use xlink:href="#DejaVuSans-30"/>
       <use x="63.623047" xlink:href="#DejaVuSans-2e"/>
       <use x="95.410156" xlink:href="#DejaVuSans-32"/>
      </g>
     </g>
    </g>
    <g id="ytick_6">
     <g id="line2d_24">
      <g>
       <use style="stroke:#000000;stroke-width:0.8;" x="71.718365" xlink:href="#mad5fc2d9a9" y="321.197829"/>
      </g>
     </g>
     <g id="text_12">
      <!-- 0.4 -->
      <g transform="translate(36.09274 328.036422)scale(0.18 -0.18)">
       <use xlink:href="#DejaVuSans-30"/>
       <use x="63.623047" xlink:href="#DejaVuSans-2e"/>
       <use x="95.410156" xlink:href="#DejaVuSans-34"/>
      </g>
     </g>
    </g>
    <g id="text_13">
     <!-- Conc. N14 $A\beta$ / µM -->
     <g transform="translate(28.31274 442.55774)rotate(-90)scale(0.18 -0.18)">
      <use transform="translate(0 0.390625)" xlink:href="#DejaVuSans-43"/>
      <use transform="translate(69.824219 0.390625)" xlink:href="#DejaVuSans-6f"/>
      <use transform="translate(131.005859 0.390625)" xlink:href="#DejaVuSans-6e"/>
      <use transform="translate(194.384766 0.390625)" xlink:href="#DejaVuSans-63"/>
      <use transform="translate(249.365234 0.390625)" xlink:href="#DejaVuSans-2e"/>
      <use transform="translate(281.152344 0.390625)" xlink:href="#DejaVuSans-20"/>
      <use transform="translate(312.939453 0.390625)" xlink:href="#DejaVuSans-4e"/>
      <use transform="translate(387.744141 0.390625)" xlink:href="#DejaVuSans-31"/>
      <use transform="translate(451.367188 0.390625)" xlink:href="#DejaVuSans-34"/>
      <use transform="translate(514.990234 0.390625)" xlink:href="#DejaVuSans-20"/>
      <use transform="translate(546.777344 0.390625)" xlink:href="#DejaVuSans-Oblique-41"/>
      <use transform="translate(615.185547 0.390625)" xlink:href="#DejaVuSans-Oblique-3b2"/>
      <use transform="translate(679.003906 0.390625)" xlink:href="#DejaVuSans-20"/>
      <use transform="translate(710.791016 0.390625)" xlink:href="#DejaVuSans-2f"/>
      <use transform="translate(744.482422 0.390625)" xlink:href="#DejaVuSans-20"/>
      <use transform="translate(776.269531 0.390625)" xlink:href="#DejaVuSans-b5"/>
      <use transform="translate(839.892578 0.390625)" xlink:href="#DejaVuSans-4d"/>
     </g>
    </g>
   </g>
   <g id="LineCollection_2">
    <path clip-path="url(#p7df2966949)" d="M 152.378539 356.133329 
L 152.378539 284.38182 
" style="fill:none;stroke:#000000;stroke-width:1.5;"/>
    <path clip-path="url(#p7df2966949)" d="M 313.698888 311.400708 
L 313.698888 278.437678 
" style="fill:none;stroke:#000000;stroke-width:1.5;"/>
    <path clip-path="url(#p7df2966949)" d="M 475.019237 298.340919 
L 475.019237 289.623799 
" style="fill:none;stroke:#000000;stroke-width:1.5;"/>
    <path clip-path="url(#p7df2966949)" d="M 636.339586 373.481645 
L 636.339586 350.918329 
" style="fill:none;stroke:#000000;stroke-width:1.5;"/>
   </g>
   <g id="patch_24">
    <path d="M 71.718365 448.311493 
L 71.718365 269.943987 
" style="fill:none;stroke:#000000;stroke-linecap:square;stroke-linejoin:miter;stroke-width:0.8;"/>
   </g>
   <g id="patch_25">
    <path d="M 716.99976 448.311493 
L 716.99976 269.943987 
" style="fill:none;stroke:#000000;stroke-linecap:square;stroke-linejoin:miter;stroke-width:0.8;"/>
   </g>
   <g id="patch_26">
    <path d="M 71.718365 448.311493 
L 716.99976 448.311493 
" style="fill:none;stroke:#000000;stroke-linecap:square;stroke-linejoin:miter;stroke-width:0.8;"/>
   </g>
   <g id="patch_27">
    <path d="M 71.718365 269.943987 
L 716.99976 269.943987 
" style="fill:none;stroke:#000000;stroke-linecap:square;stroke-linejoin:miter;stroke-width:0.8;"/>
   </g>
   <g id="text_14">
    <!-- 0.40 -->
    <g transform="translate(132.339477 389.251409)scale(0.18 -0.18)">
     <use xlink:href="#DejaVuSans-30"/>
     <use x="63.623047" xlink:href="#DejaVuSans-2e"/>
     <use x="95.410156" xlink:href="#DejaVuSans-34"/>
     <use x="159.033203" xlink:href="#DejaVuSans-30"/>
    </g>
   </g>
   <g id="text_15">
    <!-- 0.48 -->
    <g transform="translate(293.659826 376.582218)scale(0.18 -0.18)">
     <use xlink:href="#DejaVuSans-30"/>
     <use x="63.623047" xlink:href="#DejaVuSans-2e"/>
     <use x="95.410156" xlink:href="#DejaVuSans-34"/>
     <use x="159.033203" xlink:href="#DejaVuSans-38"/>
    </g>
   </g>
   <g id="text_16">
    <!-- 0.49 -->
    <g transform="translate(454.980174 376.113801)scale(0.18 -0.18)">
     <use xlink:href="#DejaVuSans-30"/>
     <use x="63.623047" xlink:href="#DejaVuSans-2e"/>
     <use x="95.410156" xlink:href="#DejaVuSans-34"/>
     <use x="159.033203" xlink:href="#DejaVuSans-39"/>
    </g>
   </g>
   <g id="text_17">
    <!-- 0.27 -->
    <g transform="translate(616.300523 410.222615)scale(0.18 -0.18)">
     <use xlink:href="#DejaVuSans-30"/>
     <use x="63.623047" xlink:href="#DejaVuSans-2e"/>
     <use x="95.410156" xlink:href="#DejaVuSans-32"/>
     <use x="159.033203" xlink:href="#DejaVuSans-37"/>
    </g>
   </g>
   <g id="text_18">
    <!-- 1325 -->
    <g transform="translate(366.873063 263.943987)scale(0.216 -0.216)">
     <use xlink:href="#DejaVuSans-31"/>
     <use x="63.623047" xlink:href="#DejaVuSans-33"/>
     <use x="127.246094" xlink:href="#DejaVuSans-32"/>
     <use x="190.869141" xlink:href="#DejaVuSans-35"/>
    </g>
   </g>
  </g>
  <g id="axes_3">
   <g id="patch_28">
    <path d="M 71.718365 665.674135 
L 716.99976 665.674135 
L 716.99976 487.306629 
L 71.718365 487.306629 
z
" style="fill:#ffffff;"/>
   </g>
   <g id="patch_29">
    <path clip-path="url(#p09ee90b099)" d="M 112.048452 665.674135 
L 192.708627 665.674135 
L 192.708627 546.699734 
L 112.048452 546.699734 
z
" style="fill:#1f77b4;"/>
   </g>
   <g id="patch_30">
    <path clip-path="url(#p09ee90b099)" d="M 273.368801 665.674135 
L 354.028975 665.674135 
L 354.028975 509.826874 
L 273.368801 509.826874 
z
" style="fill:#1f77b4;"/>
   </g>
   <g id="patch_31">
    <path clip-path="url(#p09ee90b099)" d="M 434.68915 665.674135 
L 515.349324 665.674135 
L 515.349324 508.152579 
L 434.68915 508.152579 
z
" style="fill:#1f77b4;"/>
   </g>
   <g id="patch_32">
    <path clip-path="url(#p09ee90b099)" d="M 596.009498 665.674135 
L 676.669673 665.674135 
L 676.669673 546.377242 
L 596.009498 546.377242 
z
" style="fill:#1f77b4;"/>
   </g>
   <g id="patch_33">
    <path clip-path="url(#p09ee90b099)" d="M 112.048452 665.674135 
L 192.708627 665.674135 
L 192.708627 546.699734 
L 112.048452 546.699734 
z
" style="fill:#8b0000;"/>
   </g>
   <g id="patch_34">
    <path clip-path="url(#p09ee90b099)" d="M 273.368801 665.674135 
L 354.028975 665.674135 
L 354.028975 509.826874 
L 273.368801 509.826874 
z
" style="fill:#8b0000;"/>
   </g>
   <g id="patch_35">
    <path clip-path="url(#p09ee90b099)" d="M 434.68915 665.674135 
L 515.349324 665.674135 
L 515.349324 508.152579 
L 434.68915 508.152579 
z
" style="fill:#8b0000;"/>
   </g>
   <g id="patch_36">
    <path clip-path="url(#p09ee90b099)" d="M 596.009498 665.674135 
L 676.669673 665.674135 
L 676.669673 546.377242 
L 596.009498 546.377242 
z
" style="fill:#8b0000;"/>
   </g>
   <g id="matplotlib.axis_5">
    <g id="xtick_19">
     <g id="line2d_25">
      <g>
       <use style="stroke:#000000;stroke-width:0.8;" x="152.378539" xlink:href="#md951c17257" y="665.674135"/>
      </g>
     </g>
     <g id="text_19">
      <!-- 00 -->
      <g transform="translate(157.345414 695.579135)rotate(-90)scale(0.18 -0.18)">
       <use xlink:href="#DejaVuSans-30"/>
       <use x="63.623047" xlink:href="#DejaVuSans-30"/>
      </g>
     </g>
    </g>
    <g id="xtick_20">
     <g id="line2d_26">
      <g>
       <use style="stroke:#000000;stroke-width:0.8;" x="313.698888" xlink:href="#md951c17257" y="665.674135"/>
      </g>
     </g>
     <g id="text_20">
      <!-- 05 -->
      <g transform="translate(318.665763 695.579135)rotate(-90)scale(0.18 -0.18)">
       <use xlink:href="#DejaVuSans-30"/>
       <use x="63.623047" xlink:href="#DejaVuSans-35"/>
      </g>
     </g>
    </g>
    <g id="xtick_21">
     <g id="line2d_27">
      <g>
       <use style="stroke:#000000;stroke-width:0.8;" x="475.019237" xlink:href="#md951c17257" y="665.674135"/>
      </g>
     </g>
     <g id="text_21">
      <!-- 10 -->
      <g transform="translate(479.986112 695.579135)rotate(-90)scale(0.18 -0.18)">
       <use xlink:href="#DejaVuSans-31"/>
       <use x="63.623047" xlink:href="#DejaVuSans-30"/>
      </g>
     </g>
    </g>
    <g id="xtick_22">
     <g id="line2d_28">
      <g>
       <use style="stroke:#000000;stroke-width:0.8;" x="636.339586" xlink:href="#md951c17257" y="665.674135"/>
      </g>
     </g>
     <g id="text_22">
      <!-- 30 -->
      <g transform="translate(641.306461 695.579135)rotate(-90)scale(0.18 -0.18)">
       <use xlink:href="#DejaVuSans-33"/>
       <use x="63.623047" xlink:href="#DejaVuSans-30"/>
      </g>
     </g>
    </g>
    <g id="text_23">
     <!-- # of tips -->
     <g transform="translate(355.990937 713.256323)scale(0.18 -0.18)">
      <defs>
       <path d="M 3272 2816 
L 2363 2816 
L 2100 1772 
L 3016 1772 
L 3272 2816 
z
M 2803 4594 
L 2478 3297 
L 3391 3297 
L 3719 4594 
L 4219 4594 
L 3897 3297 
L 4872 3297 
L 4872 2816 
L 3775 2816 
L 3519 1772 
L 4513 1772 
L 4513 1294 
L 3397 1294 
L 3072 0 
L 2572 0 
L 2894 1294 
L 1978 1294 
L 1656 0 
L 1153 0 
L 1478 1294 
L 494 1294 
L 494 1772 
L 1594 1772 
L 1856 2816 
L 850 2816 
L 850 3297 
L 1978 3297 
L 2297 4594 
L 2803 4594 
z
" id="DejaVuSans-23" transform="scale(0.015625)"/>
       <path d="M 2375 4863 
L 2375 4384 
L 1825 4384 
Q 1516 4384 1395 4259 
Q 1275 4134 1275 3809 
L 1275 3500 
L 2222 3500 
L 2222 3053 
L 1275 3053 
L 1275 0 
L 697 0 
L 697 3053 
L 147 3053 
L 147 3500 
L 697 3500 
L 697 3744 
Q 697 4328 969 4595 
Q 1241 4863 1831 4863 
L 2375 4863 
z
" id="DejaVuSans-66" transform="scale(0.015625)"/>
       <path d="M 1172 4494 
L 1172 3500 
L 2356 3500 
L 2356 3053 
L 1172 3053 
L 1172 1153 
Q 1172 725 1289 603 
Q 1406 481 1766 481 
L 2356 481 
L 2356 0 
L 1766 0 
Q 1100 0 847 248 
Q 594 497 594 1153 
L 594 3053 
L 172 3053 
L 172 3500 
L 594 3500 
L 594 4494 
L 1172 4494 
z
" id="DejaVuSans-74" transform="scale(0.015625)"/>
       <path d="M 603 3500 
L 1178 3500 
L 1178 0 
L 603 0 
L 603 3500 
z
M 603 4863 
L 1178 4863 
L 1178 4134 
L 603 4134 
L 603 4863 
z
" id="DejaVuSans-69" transform="scale(0.015625)"/>
       <path d="M 1159 525 
L 1159 -1331 
L 581 -1331 
L 581 3500 
L 1159 3500 
L 1159 2969 
Q 1341 3281 1617 3432 
Q 1894 3584 2278 3584 
Q 2916 3584 3314 3078 
Q 3713 2572 3713 1747 
Q 3713 922 3314 415 
Q 2916 -91 2278 -91 
Q 1894 -91 1617 61 
Q 1341 213 1159 525 
z
M 3116 1747 
Q 3116 2381 2855 2742 
Q 2594 3103 2138 3103 
Q 1681 3103 1420 2742 
Q 1159 2381 1159 1747 
Q 1159 1113 1420 752 
Q 1681 391 2138 391 
Q 2594 391 2855 752 
Q 3116 1113 3116 1747 
z
" id="DejaVuSans-70" transform="scale(0.015625)"/>
       <path d="M 2834 3397 
L 2834 2853 
Q 2591 2978 2328 3040 
Q 2066 3103 1784 3103 
Q 1356 3103 1142 2972 
Q 928 2841 928 2578 
Q 928 2378 1081 2264 
Q 1234 2150 1697 2047 
L 1894 2003 
Q 2506 1872 2764 1633 
Q 3022 1394 3022 966 
Q 3022 478 2636 193 
Q 2250 -91 1575 -91 
Q 1294 -91 989 -36 
Q 684 19 347 128 
L 347 722 
Q 666 556 975 473 
Q 1284 391 1588 391 
Q 1994 391 2212 530 
Q 2431 669 2431 922 
Q 2431 1156 2273 1281 
Q 2116 1406 1581 1522 
L 1381 1569 
Q 847 1681 609 1914 
Q 372 2147 372 2553 
Q 372 3047 722 3315 
Q 1072 3584 1716 3584 
Q 2034 3584 2315 3537 
Q 2597 3491 2834 3397 
z
" id="DejaVuSans-73" transform="scale(0.015625)"/>
      </defs>
      <use xlink:href="#DejaVuSans-23"/>
      <use x="83.789062" xlink:href="#DejaVuSans-20"/>
      <use x="115.576172" xlink:href="#DejaVuSans-6f"/>
      <use x="176.757812" xlink:href="#DejaVuSans-66"/>
      <use x="211.962891" xlink:href="#DejaVuSans-20"/>
      <use x="243.75" xlink:href="#DejaVuSans-74"/>
      <use x="282.958984" xlink:href="#DejaVuSans-69"/>
      <use x="310.742188" xlink:href="#DejaVuSans-70"/>
      <use x="374.21875" xlink:href="#DejaVuSans-73"/>
     </g>
    </g>
   </g>
   <g id="matplotlib.axis_6">
    <g id="ytick_7">
     <g id="line2d_29">
      <g>
       <use style="stroke:#000000;stroke-width:0.8;" x="71.718365" xlink:href="#mad5fc2d9a9" y="665.674135"/>
      </g>
     </g>
     <g id="text_24">
      <!-- 0.00 -->
      <g transform="translate(24.64024 672.512729)scale(0.18 -0.18)">
       <use xlink:href="#DejaVuSans-30"/>
       <use x="63.623047" xlink:href="#DejaVuSans-2e"/>
       <use x="95.410156" xlink:href="#DejaVuSans-30"/>
       <use x="159.033203" xlink:href="#DejaVuSans-30"/>
      </g>
     </g>
    </g>
    <g id="ytick_8">
     <g id="line2d_30">
      <g>
       <use style="stroke:#000000;stroke-width:0.8;" x="71.718365" xlink:href="#mad5fc2d9a9" y="617.765283"/>
      </g>
     </g>
     <g id="text_25">
      <!-- 0.25 -->
      <g transform="translate(24.64024 624.603877)scale(0.18 -0.18)">
       <use xlink:href="#DejaVuSans-30"/>
       <use x="63.623047" xlink:href="#DejaVuSans-2e"/>
       <use x="95.410156" xlink:href="#DejaVuSans-32"/>
       <use x="159.033203" xlink:href="#DejaVuSans-35"/>
      </g>
     </g>
    </g>
    <g id="ytick_9">
     <g id="line2d_31">
      <g>
       <use style="stroke:#000000;stroke-width:0.8;" x="71.718365" xlink:href="#mad5fc2d9a9" y="569.856431"/>
      </g>
     </g>
     <g id="text_26">
      <!-- 0.50 -->
      <g transform="translate(24.64024 576.695025)scale(0.18 -0.18)">
       <use xlink:href="#DejaVuSans-30"/>
       <use x="63.623047" xlink:href="#DejaVuSans-2e"/>
       <use x="95.410156" xlink:href="#DejaVuSans-35"/>
       <use x="159.033203" xlink:href="#DejaVuSans-30"/>
      </g>
     </g>
    </g>
    <g id="ytick_10">
     <g id="line2d_32">
      <g>
       <use style="stroke:#000000;stroke-width:0.8;" x="71.718365" xlink:href="#mad5fc2d9a9" y="521.947579"/>
      </g>
     </g>
     <g id="text_27">
      <!-- 0.75 -->
      <g transform="translate(24.64024 528.786173)scale(0.18 -0.18)">
       <use xlink:href="#DejaVuSans-30"/>
       <use x="63.623047" xlink:href="#DejaVuSans-2e"/>
       <use x="95.410156" xlink:href="#DejaVuSans-37"/>
       <use x="159.033203" xlink:href="#DejaVuSans-35"/>
      </g>
     </g>
    </g>
    <g id="text_28">
     <!-- Conc. N14 $A\beta$ / µM -->
     <g transform="translate(16.86024 659.920382)rotate(-90)scale(0.18 -0.18)">
      <use transform="translate(0 0.390625)" xlink:href="#DejaVuSans-43"/>
      <use transform="translate(69.824219 0.390625)" xlink:href="#DejaVuSans-6f"/>
      <use transform="translate(131.005859 0.390625)" xlink:href="#DejaVuSans-6e"/>
      <use transform="translate(194.384766 0.390625)" xlink:href="#DejaVuSans-63"/>
      <use transform="translate(249.365234 0.390625)" xlink:href="#DejaVuSans-2e"/>
      <use transform="translate(281.152344 0.390625)" xlink:href="#DejaVuSans-20"/>
      <use transform="translate(312.939453 0.390625)" xlink:href="#DejaVuSans-4e"/>
      <use transform="translate(387.744141 0.390625)" xlink:href="#DejaVuSans-31"/>
      <use transform="translate(451.367188 0.390625)" xlink:href="#DejaVuSans-34"/>
      <use transform="translate(514.990234 0.390625)" xlink:href="#DejaVuSans-20"/>
      <use transform="translate(546.777344 0.390625)" xlink:href="#DejaVuSans-Oblique-41"/>
      <use transform="translate(615.185547 0.390625)" xlink:href="#DejaVuSans-Oblique-3b2"/>
      <use transform="translate(679.003906 0.390625)" xlink:href="#DejaVuSans-20"/>
      <use transform="translate(710.791016 0.390625)" xlink:href="#DejaVuSans-2f"/>
      <use transform="translate(744.482422 0.390625)" xlink:href="#DejaVuSans-20"/>
      <use transform="translate(776.269531 0.390625)" xlink:href="#DejaVuSans-b5"/>
      <use transform="translate(839.892578 0.390625)" xlink:href="#DejaVuSans-4d"/>
     </g>
    </g>
   </g>
   <g id="LineCollection_3">
    <path clip-path="url(#p09ee90b099)" d="M 152.378539 597.599148 
L 152.378539 495.80032 
" style="fill:none;stroke:#000000;stroke-width:1.5;"/>
    <path clip-path="url(#p09ee90b099)" d="M 313.698888 521.284828 
L 313.698888 498.368921 
" style="fill:none;stroke:#000000;stroke-width:1.5;"/>
    <path clip-path="url(#p09ee90b099)" d="M 475.019237 516.086499 
L 475.019237 500.21866 
" style="fill:none;stroke:#000000;stroke-width:1.5;"/>
    <path clip-path="url(#p09ee90b099)" d="M 636.339586 552.308724 
L 636.339586 540.44576 
" style="fill:none;stroke:#000000;stroke-width:1.5;"/>
   </g>
   <g id="patch_37">
    <path d="M 71.718365 665.674135 
L 71.718365 487.306629 
" style="fill:none;stroke:#000000;stroke-linecap:square;stroke-linejoin:miter;stroke-width:0.8;"/>
   </g>
   <g id="patch_38">
    <path d="M 716.99976 665.674135 
L 716.99976 487.306629 
" style="fill:none;stroke:#000000;stroke-linecap:square;stroke-linejoin:miter;stroke-width:0.8;"/>
   </g>
   <g id="patch_39">
    <path d="M 71.718365 665.674135 
L 716.99976 665.674135 
" style="fill:none;stroke:#000000;stroke-linecap:square;stroke-linejoin:miter;stroke-width:0.8;"/>
   </g>
   <g id="patch_40">
    <path d="M 71.718365 487.306629 
L 716.99976 487.306629 
" style="fill:none;stroke:#000000;stroke-linecap:square;stroke-linejoin:miter;stroke-width:0.8;"/>
   </g>
   <g id="text_29">
    <!-- 0.62 -->
    <g transform="translate(132.339477 611.15381)scale(0.18 -0.18)">
     <use xlink:href="#DejaVuSans-30"/>
     <use x="63.623047" xlink:href="#DejaVuSans-2e"/>
     <use x="95.410156" xlink:href="#DejaVuSans-36"/>
     <use x="159.033203" xlink:href="#DejaVuSans-32"/>
    </g>
   </g>
   <g id="text_30">
    <!-- 0.81 -->
    <g transform="translate(293.659826 592.71738)scale(0.18 -0.18)">
     <use xlink:href="#DejaVuSans-30"/>
     <use x="63.623047" xlink:href="#DejaVuSans-2e"/>
     <use x="95.410156" xlink:href="#DejaVuSans-38"/>
     <use x="159.033203" xlink:href="#DejaVuSans-31"/>
    </g>
   </g>
   <g id="text_31">
    <!-- 0.82 -->
    <g transform="translate(454.980174 591.880232)scale(0.18 -0.18)">
     <use xlink:href="#DejaVuSans-30"/>
     <use x="63.623047" xlink:href="#DejaVuSans-2e"/>
     <use x="95.410156" xlink:href="#DejaVuSans-38"/>
     <use x="159.033203" xlink:href="#DejaVuSans-32"/>
    </g>
   </g>
   <g id="text_32">
    <!-- 0.62 -->
    <g transform="translate(616.300523 610.992564)scale(0.18 -0.18)">
     <use xlink:href="#DejaVuSans-30"/>
     <use x="63.623047" xlink:href="#DejaVuSans-2e"/>
     <use x="95.410156" xlink:href="#DejaVuSans-36"/>
     <use x="159.033203" xlink:href="#DejaVuSans-32"/>
    </g>
   </g>
   <g id="text_33">
    <!-- 1336 -->
    <g transform="translate(366.873063 481.306629)scale(0.216 -0.216)">
     <use xlink:href="#DejaVuSans-31"/>
     <use x="63.623047" xlink:href="#DejaVuSans-33"/>
     <use x="127.246094" xlink:href="#DejaVuSans-33"/>
     <use x="190.869141" xlink:href="#DejaVuSans-36"/>
    </g>
   </g>
  </g>
  <g id="text_34">
   <!-- $A\beta$ adsorption to pipette tips -->
   <g transform="translate(205.236 19.63224)scale(0.216 -0.216)">
    <defs>
     <path d="M 2194 1759 
Q 1497 1759 1228 1600 
Q 959 1441 959 1056 
Q 959 750 1161 570 
Q 1363 391 1709 391 
Q 2188 391 2477 730 
Q 2766 1069 2766 1631 
L 2766 1759 
L 2194 1759 
z
M 3341 1997 
L 3341 0 
L 2766 0 
L 2766 531 
Q 2569 213 2275 61 
Q 1981 -91 1556 -91 
Q 1019 -91 701 211 
Q 384 513 384 1019 
Q 384 1609 779 1909 
Q 1175 2209 1959 2209 
L 2766 2209 
L 2766 2266 
Q 2766 2663 2505 2880 
Q 2244 3097 1772 3097 
Q 1472 3097 1187 3025 
Q 903 2953 641 2809 
L 641 3341 
Q 956 3463 1253 3523 
Q 1550 3584 1831 3584 
Q 2591 3584 2966 3190 
Q 3341 2797 3341 1997 
z
" id="DejaVuSans-61" transform="scale(0.015625)"/>
     <path d="M 2906 2969 
L 2906 4863 
L 3481 4863 
L 3481 0 
L 2906 0 
L 2906 525 
Q 2725 213 2448 61 
Q 2172 -91 1784 -91 
Q 1150 -91 751 415 
Q 353 922 353 1747 
Q 353 2572 751 3078 
Q 1150 3584 1784 3584 
Q 2172 3584 2448 3432 
Q 2725 3281 2906 2969 
z
M 947 1747 
Q 947 1113 1208 752 
Q 1469 391 1925 391 
Q 2381 391 2643 752 
Q 2906 1113 2906 1747 
Q 2906 2381 2643 2742 
Q 2381 3103 1925 3103 
Q 1469 3103 1208 2742 
Q 947 2381 947 1747 
z
" id="DejaVuSans-64" transform="scale(0.015625)"/>
     <path d="M 2631 2963 
Q 2534 3019 2420 3045 
Q 2306 3072 2169 3072 
Q 1681 3072 1420 2755 
Q 1159 2438 1159 1844 
L 1159 0 
L 581 0 
L 581 3500 
L 1159 3500 
L 1159 2956 
Q 1341 3275 1631 3429 
Q 1922 3584 2338 3584 
Q 2397 3584 2469 3576 
Q 2541 3569 2628 3553 
L 2631 2963 
z
" id="DejaVuSans-72" transform="scale(0.015625)"/>
     <path d="M 3597 1894 
L 3597 1613 
L 953 1613 
Q 991 1019 1311 708 
Q 1631 397 2203 397 
Q 2534 397 2845 478 
Q 3156 559 3463 722 
L 3463 178 
Q 3153 47 2828 -22 
Q 2503 -91 2169 -91 
Q 1331 -91 842 396 
Q 353 884 353 1716 
Q 353 2575 817 3079 
Q 1281 3584 2069 3584 
Q 2775 3584 3186 3129 
Q 3597 2675 3597 1894 
z
M 3022 2063 
Q 3016 2534 2758 2815 
Q 2500 3097 2075 3097 
Q 1594 3097 1305 2825 
Q 1016 2553 972 2059 
L 3022 2063 
z
" id="DejaVuSans-65" transform="scale(0.015625)"/>
    </defs>
    <use transform="translate(0 0.390625)" xlink:href="#DejaVuSans-Oblique-41"/>
    <use transform="translate(68.408203 0.390625)" xlink:href="#DejaVuSans-Oblique-3b2"/>
    <use transform="translate(132.226562 0.390625)" xlink:href="#DejaVuSans-20"/>
    <use transform="translate(164.013672 0.390625)" xlink:href="#DejaVuSans-61"/>
    <use transform="translate(225.292969 0.390625)" xlink:href="#DejaVuSans-64"/>
    <use transform="translate(288.769531 0.390625)" xlink:href="#DejaVuSans-73"/>
    <use transform="translate(340.869141 0.390625)" xlink:href="#DejaVuSans-6f"/>
    <use transform="translate(402.050781 0.390625)" xlink:href="#DejaVuSans-72"/>
    <use transform="translate(443.164062 0.390625)" xlink:href="#DejaVuSans-70"/>
    <use transform="translate(506.640625 0.390625)" xlink:href="#DejaVuSans-74"/>
    <use transform="translate(545.849609 0.390625)" xlink:href="#DejaVuSans-69"/>
    <use transform="translate(573.632812 0.390625)" xlink:href="#DejaVuSans-6f"/>
    <use transform="translate(634.814453 0.390625)" xlink:href="#DejaVuSans-6e"/>
    <use transform="translate(698.193359 0.390625)" xlink:href="#DejaVuSans-20"/>
    <use transform="translate(729.980469 0.390625)" xlink:href="#DejaVuSans-74"/>
    <use transform="translate(769.189453 0.390625)" xlink:href="#DejaVuSans-6f"/>
    <use transform="translate(830.371094 0.390625)" xlink:href="#DejaVuSans-20"/>
    <use transform="translate(862.158203 0.390625)" xlink:href="#DejaVuSans-70"/>
    <use transform="translate(925.634766 0.390625)" xlink:href="#DejaVuSans-69"/>
    <use transform="translate(953.417969 0.390625)" xlink:href="#DejaVuSans-70"/>
    <use transform="translate(1016.894531 0.390625)" xlink:href="#DejaVuSans-65"/>
    <use transform="translate(1078.417969 0.390625)" xlink:href="#DejaVuSans-74"/>
    <use transform="translate(1117.626953 0.390625)" xlink:href="#DejaVuSans-74"/>
    <use transform="translate(1156.835938 0.390625)" xlink:href="#DejaVuSans-65"/>
    <use transform="translate(1218.359375 0.390625)" xlink:href="#DejaVuSans-20"/>
    <use transform="translate(1250.146484 0.390625)" xlink:href="#DejaVuSans-74"/>
    <use transform="translate(1289.355469 0.390625)" xlink:href="#DejaVuSans-69"/>
    <use transform="translate(1317.138672 0.390625)" xlink:href="#DejaVuSans-70"/>
    <use transform="translate(1380.615234 0.390625)" xlink:href="#DejaVuSans-73"/>
   </g>
  </g>
 </g>
 <defs>
  <clipPath id="p0458b7306e">
   <rect height="178.367506" width="645.281395" x="71.718365" y="52.581345"/>
  </clipPath>
  <clipPath id="p7df2966949">
   <rect height="178.367506" width="645.281395" x="71.718365" y="269.943987"/>
  </clipPath>
  <clipPath id="p09ee90b099">
   <rect height="178.367506" width="645.281395" x="71.718365" y="487.306629"/>
  </clipPath>
 </defs>
</svg>
